<svg width="38" xmlns="http://www.w3.org/2000/svg" height="31" id="screenshot-cbfac23a-15c1-8084-8006-4694bf2ca46b" viewBox="0 0 38 31" xmlns:xlink="http://www.w3.org/1999/xlink" fill="none" version="1.1"><g id="shape-cbfac23a-15c1-8084-8006-4694bf2ca46b" rx="0" ry="0"><g id="shape-e0a5bdfd-1605-80a0-8006-46925e7303de"><g class="fills" id="fills-e0a5bdfd-1605-80a0-8006-46925e7303de"><path d="M19.000,24.000C21.208,24.000,23.000,25.568,23.000,27.500C23.000,29.432,21.208,31.000,19.000,31.000C16.792,31.000,15.000,29.432,15.000,27.500C15.000,25.568,16.792,24.000,19.000,24.000Z" style="fill: rgb(255, 255, 255); fill-opacity: 1;"/></g></g><g id="shape-e0a5bdfd-1605-80a0-8006-4693a73f4065"><g class="fills" id="fills-e0a5bdfd-1605-80a0-8006-4693a73f4065"><rect rx="0" ry="0" x="0" y="13" transform="matrix(1.000000, 0.000000, 0.000000, 1.000000, 0.000000, 0.000000)" width="38" height="3" style="fill: rgb(255, 255, 255); fill-opacity: 1;"/></g></g><g id="shape-e0a5bdfd-1605-80a0-8006-469202776290"><g class="fills" id="fills-e0a5bdfd-1605-80a0-8006-469202776290"><path d="M19.000,0.000C21.208,0.000,23.000,1.568,23.000,3.500C23.000,5.432,21.208,7.000,19.000,7.000C16.792,7.000,15.000,5.432,15.000,3.500C15.000,1.568,16.792,0.000,19.000,0.000Z" style="fill: rgb(255, 255, 255); fill-opacity: 1;"/></g></g></g></svg>