<svg width="44" xmlns="http://www.w3.org/2000/svg" height="34" id="screenshot-cbfac23a-15c1-8084-8006-46ab4d2442d2" viewBox="0 -0 44 34" xmlns:xlink="http://www.w3.org/1999/xlink" fill="none" version="1.1"><g id="shape-cbfac23a-15c1-8084-8006-46ab4d2442d2" rx="0" ry="0"><g id="shape-cbfac23a-15c1-8084-8006-46ac4f8aacaf"><g class="fills" id="fills-cbfac23a-15c1-8084-8006-46ac4f8aacaf"><rect rx="0" ry="0" x="0" y="-2.2737367544323206e-13" transform="matrix(1.000000, 0.000000, 0.000000, 1.000000, 0.000000, 0.000000)" width="44" height="34" style="fill: rgb(177, 178, 181); fill-opacity: 0;"/></g></g><g id="shape-cbfac23a-15c1-8084-8006-4695015bb7cb"><g class="fills" id="fills-cbfac23a-15c1-8084-8006-4695015bb7cb"><rect rx="0" ry="0" x="11" y="15" transform="matrix(1.000000, 0.000000, 0.000000, 1.000000, 0.000000, 0.000000)" width="22" height="3.5" style="fill: rgb(255, 255, 255); fill-opacity: 1;"/></g></g><g id="shape-cbfac23a-15c1-8084-8006-4695afbf4423"><g class="fills" id="fills-cbfac23a-15c1-8084-8006-4695afbf4423"><path d="M37.000,2.500C37.000,2.500,42.000,7.476,42.000,17.000C42.000,26.812,37.000,31.504,37.000,31.504"/></g><g id="strokes-d4300cae-b6cf-8010-8006-46ac7c237dd0-cbfac23a-15c1-8084-8006-4695afbf4423" class="strokes"><g class="stroke-shape"><path d="M37.000,2.500C37.000,2.500,42.000,7.476,42.000,17.000C42.000,26.812,37.000,31.504,37.000,31.504" style="fill: none; stroke-width: 3; stroke: rgb(255, 255, 255); stroke-opacity: 1;"/></g></g></g><g id="shape-cbfac23a-15c1-8084-8006-46960435e806"><g class="fills" id="fills-cbfac23a-15c1-8084-8006-46960435e806"><path d="M7.000,2.500C7.000,2.500,2.000,7.476,2.000,17.000C2.000,26.812,7.000,31.504,7.000,31.504"/></g><g id="strokes-d4300cae-b6cf-8010-8006-46ac7c242c36-cbfac23a-15c1-8084-8006-46960435e806" class="strokes"><g class="stroke-shape"><path d="M7.000,2.500C7.000,2.500,2.000,7.476,2.000,17.000C2.000,26.812,7.000,31.504,7.000,31.504" style="fill: none; stroke-width: 3; stroke: rgb(255, 255, 255); stroke-opacity: 1;"/></g></g></g></g></svg>